HIERARCHY
ROOT Hips
{
	OFFSET 0.000000 0.000000 0.000000
	CHANNELS 6 Xposition Yposition Zposition Zrotation Yrotation Xrotation 
	JOINT LHipJoint
	{
		OFFSET 0.000000 0.000000 0.000000
		CHANNELS 3 Zrotation Yrotation Xrotation
		JOINT LeftUpLeg
		{
			OFFSET 1.363060 -1.794630 0.839290
			CHANNELS 3 Zrotation Yrotation Xrotation
			JOINT LeftLeg
			{
				OFFSET 2.448110 -6.726130 0.000000
				CHANNELS 3 Zrotation Yrotation Xrotation
				JOINT LeftFoot
				{
					OFFSET 2.562200 -7.039590 0.000000
					CHANNELS 3 Zrotation Yrotation Xrotation
					JOINT LeftToeBase
					{
						OFFSET 0.157640 -0.433110 2.322550
						CHANNELS 3 Zrotation Yrotation Xrotation
						End Site
						{
							OFFSET 0.000000 0.000000 0.000000
						}
					}
				}
			}
		}
	}
	JOINT RHipJoint
	{
		OFFSET 0.000000 0.000000 0.000000
		CHANNELS 3 Zrotation Yrotation Xrotation
		JOINT RightUpLeg
		{
			OFFSET -1.305520 -1.794630 0.839290
			CHANNELS 3 Zrotation Yrotation Xrotation
			JOINT RightLeg
			{
				OFFSET -2.542530 -6.985550 0.000000
				CHANNELS 3 Zrotation Yrotation Xrotation
				JOINT RightFoot
				{
					OFFSET -2.568260 -7.056230 0.000000
					CHANNELS 3 Zrotation Yrotation Xrotation
					JOINT RightToeBase
					{
						OFFSET -0.164730 -0.452590 2.363150
						CHANNELS 3 Zrotation Yrotation Xrotation
						End Site
						{
							OFFSET 0.000000 0.000000 0.000000
						}
					}
				}
			}
		}
	}
	JOINT LowerBack
	{
		OFFSET 0.000000 0.000000 0.000000
		CHANNELS 3 Zrotation Yrotation Xrotation
		JOINT Spine
		{
			OFFSET 0.028270 2.035590 -0.193380
			CHANNELS 3 Zrotation Yrotation Xrotation
			JOINT Spine1
			{
				OFFSET 0.056720 2.048850 -0.042750
				CHANNELS 3 Zrotation Yrotation Xrotation
				JOINT Neck
				{
					OFFSET 0.000000 0.000000 0.000000
					CHANNELS 3 Zrotation Yrotation Xrotation
					JOINT Neck1
					{
						OFFSET -0.054170 1.746240 0.172020
						CHANNELS 3 Zrotation Yrotation Xrotation
						JOINT Head
						{
							OFFSET 0.104070 1.761360 -0.123970
							CHANNELS 3 Zrotation Yrotation Xrotation
							End Site
							{
								OFFSET 0.000000 0.000000 0.000000
							}
						}
					}
				}
				JOINT LeftShoulder
				{
					OFFSET 0.000000 0.000000 0.000000
					CHANNELS 3 Zrotation Yrotation Xrotation
					JOINT LeftArm
					{
						OFFSET 3.362410 1.200890 -0.311210
						CHANNELS 3 Zrotation Yrotation Xrotation
						JOINT LeftForeArm
						{
							OFFSET 4.983000 -0.000000 -0.000000
							CHANNELS 3 Zrotation Yrotation Xrotation
							JOINT LeftHand
							{
								OFFSET 3.483560 -0.000000 -0.000000
								CHANNELS 3 Zrotation Yrotation Xrotation
								JOINT LeftFingerBase
								{
									OFFSET 0.000000 0.000000 0.000000
									CHANNELS 3 Zrotation Yrotation Xrotation
									JOINT LeftHandIndex1
									{
										OFFSET 0.715260 -0.000000 -0.000000
										CHANNELS 3 Zrotation Yrotation Xrotation
										End Site
										{
											OFFSET 0.000000 0.000000 0.000000
										}
									}
								}
								JOINT LThumb
								{
									OFFSET 0.000000 0.000000 0.000000
									CHANNELS 3 Zrotation Yrotation Xrotation
									End Site
									{
										OFFSET 0.000000 0.000000 0.000000
									}
								}
							}
						}
					}
				}
				JOINT RightShoulder
				{
					OFFSET 0.000000 0.000000 0.000000
					CHANNELS 3 Zrotation Yrotation Xrotation
					JOINT RightArm
					{
						OFFSET -3.136600 1.374050 -0.404650
						CHANNELS 3 Zrotation Yrotation Xrotation
						JOINT RightForeArm
						{
							OFFSET -5.241900 -0.000000 -0.000000
							CHANNELS 3 Zrotation Yrotation Xrotation
							JOINT RightHand
							{
								OFFSET -3.444170 -0.000000 -0.000000
								CHANNELS 3 Zrotation Yrotation Xrotation
								JOINT RightFingerBase
								{
									OFFSET 0.000000 0.000000 0.000000
									CHANNELS 3 Zrotation Yrotation Xrotation
									JOINT RightHandIndex1
									{
										OFFSET -0.622530 -0.000000 -0.000000
										CHANNELS 3 Zrotation Yrotation Xrotation
										End Site
										{
											OFFSET 0.000000 0.000000 0.000000
										}
									}
								}
								JOINT RThumb
								{
									OFFSET 0.000000 0.000000 0.000000
									CHANNELS 3 Zrotation Yrotation Xrotation
									End Site
									{
										OFFSET 0.000000 0.000000 0.000000
									}
								}
							}
						}
					}
				}
			}
		}
	}
}
MOTION
Frames: 9
Frame Time: 0.008333
4.912263 15.965229 0.837151 56.222558 -87.816625 2.607118 -8.256223 0.429856 5.482254 -6.467908 -17.498974 -95.127223 -1.435274 3.521210 50.510390 0.557790 -0.397478 -9.067995 0.179600 0.000000 -40.324400 8.491437 -0.603549 7.506374 7.381522 13.433380 -89.303247 4.450754 -2.327091 31.271419 -0.243986 2.075474 -9.003074 -0.327400 -0.000000 -62.502400 -0.979991 -1.722639 -9.167257 -0.912925 -1.994667 -5.113888 -5.415078 -2.182406 0.716277 10.296103 -13.268986 -12.910576 -1.629507 -0.019455 -1.919856 0.000000 0.000000 0.000000 1.880133 10.000888 3.727104 -54.814222 19.429375 22.886405 -1.485687 -69.328146 0.004984 -7.096228 5.408325 -0.329194 -0.041186 0.062364 -0.000000 0.000000 0.000000 0.000000 0.000000 0.000000 0.000000 10.927984 -8.385774 2.866095 64.171166 -5.869287 16.966557 1.349476 68.194555 0.030949 5.476167 4.833138 0.243523 0.039681 -0.268999 0.000000 0.000000 0.000000 0.000000 0.000000 0.000000 0.000000 
4.743182 15.842402 0.833193 57.661938 -87.898326 2.164513 -8.294715 0.535649 5.957335 -6.030603 -18.069014 -97.268235 -1.460568 3.618139 50.800866 0.420522 -0.978410 -8.870624 0.166000 -0.000000 -41.007600 8.516642 -0.696073 7.715326 7.080244 13.928664 -91.615049 4.250331 -2.796099 34.587835 -0.366772 2.222385 -10.781355 -0.236400 -0.000000 -62.150200 -0.947851 -1.626346 -9.933396 -0.947328 -1.938314 -5.296006 -5.553132 -2.135525 0.746956 10.748429 -13.018441 -13.319628 -1.867877 -0.034996 -2.053256 0.000000 0.000000 0.000000 0.977575 10.933898 3.806556 -55.714400 18.193606 20.937396 -1.572209 -67.871311 0.003745 -5.965617 5.006583 -0.253986 -0.059044 0.072248 -0.000000 0.000000 0.000000 0.000000 0.000000 0.000000 0.000000 12.317359 -8.003820 2.869311 64.081758 -5.546139 14.937196 1.359397 68.085998 0.031247 5.123598 5.210606 0.244884 0.045635 -0.280604 0.000000 0.000000 0.000000 0.000000 0.000000 0.000000 0.000000 
4.574902 15.711855 0.831866 58.296894 -87.981888 2.257047 -8.338819 0.596444 6.338933 -5.673258 -18.511412 -99.064152 -1.426642 3.756802 51.748254 0.309593 -1.535335 -9.099088 0.129500 0.000000 -41.105899 8.518762 -0.748707 7.866410 6.817048 14.358373 -93.663713 3.990046 -3.265192 38.117196 -0.539041 2.244006 -12.714147 -0.142400 -0.000000 -61.532900 -0.828817 -1.538905 -10.580626 -0.963498 -1.896589 -5.449305 -5.706676 -2.102615 0.768277 11.151969 -12.642311 -13.690892 -2.134611 -0.054252 -2.176952 0.000000 0.000000 0.000000 -0.106510 11.835205 3.867354 -56.536295 16.750909 18.917466 -1.665632 -66.199267 0.002058 -4.759793 4.661610 -0.186691 -0.075898 0.080061 -0.000000 0.000000 0.000000 0.000000 0.000000 0.000000 0.000000 13.739747 -7.507764 2.871533 64.051606 -5.072405 12.761363 1.390068 67.502767 0.030285 4.535724 5.525294 0.228938 0.054203 -0.289795 0.000000 0.000000 0.000000 0.000000 0.000000 0.000000 0.000000 
4.407879 15.574653 0.832856 58.107051 -88.071471 2.895385 -8.377911 0.609152 6.631883 -5.378524 -18.837762 -100.474494 -1.334697 3.916915 53.273179 0.240133 -2.033546 -9.818492 0.082601 0.000000 -40.593000 8.497643 -0.757382 7.960689 6.602455 14.723368 -95.404586 3.675700 -3.717134 41.798470 -0.753589 2.149598 -14.764315 -0.036800 -0.000000 -60.673600 -0.630865 -1.460001 -11.112603 -0.959917 -1.868135 -5.574262 -5.864709 -2.082662 0.780415 11.471422 -12.128151 -13.999030 -2.419072 -0.076589 -2.282399 0.000000 0.000000 0.000000 -1.337199 12.669134 3.904916 -57.302074 15.137608 16.844657 -1.763628 -64.311090 0.000053 -3.536725 4.405942 -0.129125 -0.090409 0.085448 -0.000000 0.000000 0.000000 0.000000 0.000000 0.000000 0.000000 15.115411 -6.894929 2.873429 64.113905 -4.437769 10.491609 1.443408 66.343045 0.027870 3.713043 5.747209 0.193877 0.064754 -0.295677 0.000000 0.000000 0.000000 0.000000 0.000000 0.000000 0.000000 
4.242610 15.432235 0.835590 57.143581 -88.170107 4.030331 -8.405871 0.573931 6.848692 -5.120026 -19.062776 -101.471258 -1.193646 4.075229 55.247946 0.225978 -2.428951 -11.054148 0.037300 0.000000 -39.462100 8.455640 -0.720298 8.002650 6.439685 15.030272 -96.809508 3.316031 -4.135874 45.563536 -1.000500 1.949762 -16.885348 0.087300 -0.000000 -59.586900 -0.369937 -1.387643 -11.541319 -0.937287 -1.849104 -5.672813 -6.015674 -2.072088 0.786704 11.679170 -11.483108 -14.225655 -2.708131 -0.100914 -2.362741 0.000000 0.000000 0.000000 -2.659701 13.407400 3.917443 -58.040107 13.381595 14.750221 -1.863358 -62.215284 -0.002108 -2.355450 4.265900 -0.081288 -0.101513 0.088448 -0.000000 0.000000 0.000000 0.000000 0.000000 0.000000 0.000000 16.368236 -6.183096 2.876011 64.295077 -3.626638 8.187087 1.517953 64.524778 0.023974 2.669601 5.864740 0.140892 0.076430 -0.297778 0.000000 0.000000 0.000000 0.000000 0.000000 0.000000 0.000000 
4.079232 15.286310 0.839304 55.559373 -88.275996 5.527794 -8.420752 0.495142 7.007335 -4.871416 -19.210538 -102.042290 -1.018581 4.210219 57.516377 0.278265 -2.674652 -12.789577 -0.001000 0.000000 -37.756201 8.398534 -0.638698 8.001125 6.320797 15.287854 -97.867974 2.921382 -4.507548 49.336633 -1.268825 1.651275 -19.019871 0.234699 0.000000 -58.384500 -0.070750 -1.319380 -11.886551 -0.899364 -1.834537 -5.749781 -6.150170 -2.066208 0.787690 11.757890 -10.718439 -14.355625 -2.989824 -0.126128 -2.411971 0.000000 0.000000 0.000000 -4.007841 14.010645 3.907237 -58.778645 11.531894 12.664065 -1.960653 -59.949427 -0.004262 -1.273358 4.264850 -0.041584 -0.108499 0.089432 -0.000000 0.000000 0.000000 0.000000 0.000000 0.000000 0.000000 17.437880 -5.391614 2.882110 64.616341 -2.642602 5.885162 1.607148 62.008091 0.018772 1.442176 5.872570 0.074179 0.088122 -0.296020 0.000000 0.000000 0.000000 0.000000 0.000000 0.000000 0.000000 
3.917759 15.139041 0.843008 53.608964 -88.380228 7.164702 -8.422748 0.380745 7.128080 -4.609910 -19.318366 -102.195788 -0.826648 4.305291 59.914624 0.404870 -2.725075 -14.966541 -0.040199 -0.000000 -35.604300 8.334761 -0.516466 7.967994 6.225617 15.502863 -98.588939 2.503035 -4.822317 53.041717 -1.548699 1.256997 -21.113543 0.408200 0.000000 -57.180900 0.234236 -1.254833 -12.172161 -0.851980 -1.821048 -5.808922 -6.259913 -2.061660 0.791273 11.707111 -9.860734 -14.388827 -3.252450 -0.150896 -2.428809 0.000000 0.000000 0.000000 -5.299417 14.479886 3.880053 -59.545693 9.589095 10.654404 -2.053996 -57.543121 -0.006253 -0.333395 4.401381 -0.007508 -0.111415 0.089300 -0.000000 0.000000 0.000000 0.000000 0.000000 0.000000 0.000000 18.286532 -4.551947 2.892895 65.082351 -1.480029 3.621744 1.701699 58.796773 0.012744 0.102107 5.801825 0.001335 0.098615 -0.290877 0.000000 0.000000 0.000000 0.000000 0.000000 0.000000 0.000000 
3.757962 14.993050 0.845739 51.485608 -88.477125 8.785835 -8.415679 0.238262 7.228871 -4.315625 -19.416938 -101.962734 -0.632873 4.352613 62.302096 0.608601 -2.548298 -17.499228 -0.102300 0.000000 -33.149500 8.269879 -0.363045 7.918293 6.132216 15.696934 -98.988686 2.072448 -5.072793 56.609890 -1.836100 0.761708 -23.140228 0.613000 0.000000 -55.835000 0.519420 -1.189421 -12.423903 -0.800960 -1.801719 -5.858170 -6.340759 -2.051610 0.791767 11.532377 -8.952074 -14.321973 -3.485385 -0.174111 -2.411059 0.000000 0.000000 0.000000 -6.468920 14.740949 3.842299 -60.361146 7.666041 8.740651 -2.135998 -55.111664 -0.008031 0.427959 4.706470 0.022544 -0.110349 0.088631 -0.000000 0.000000 0.000000 0.000000 0.000000 0.000000 0.000000 18.885865 -3.707203 2.917622 65.691416 -0.138409 1.438988 1.790396 54.936115 0.006236 -1.317343 5.644079 -0.072634 0.107605 -0.282762 0.000000 0.000000 0.000000 0.000000 0.000000 0.000000 0.000000 
3.599386 14.851531 0.846267 49.674878 -88.542884 9.953123 -8.396768 0.079849 7.325367 -3.984693 -19.562632 -101.381970 -0.448089 4.346149 64.545752 0.890109 -2.110757 -20.266361 -0.221201 0.000000 -30.665600 8.216633 -0.186429 7.866054 6.006619 15.867687 -99.100118 1.640147 -5.257806 59.967020 -2.126593 0.155541 -25.052840 0.852300 0.000000 -54.633900 0.748305 -1.128800 -12.663738 -0.754283 -1.779578 -5.901266 -6.391527 -2.039006 0.794084 11.260150 -7.999402 -14.165302 -3.686086 -0.195225 -2.361864 0.000000 0.000000 0.000000 -7.433332 14.827491 3.805700 -61.238348 5.744732 7.028965 -2.208480 -52.714888 -0.009512 0.998750 5.140741 0.049485 -0.106453 0.088652 -0.000000 0.000000 0.000000 0.000000 0.000000 0.000000 0.000000 19.253679 -2.855338 2.955028 66.417349 1.335460 -0.665858 1.863846 50.571239 0.000132 -2.672978 5.469520 -0.138823 0.113849 -0.272860 0.000000 0.000000 0.000000 0.000000 0.000000 0.000000 0.000000 
